<?xml version="1.0" encoding="UTF-8"?>
<svg id="logosandtypes_com" data-name="logosandtypes com" xmlns="http://www.w3.org/2000/svg" viewBox="0 0 150 150">
  <defs>
    <style>
      .cls-1 {
        fill: #1c3aa9;
      }

      .cls-2 {
        fill: #4285f4;
      }

      .cls-3 {
        fill: none;
      }

      .cls-4 {
        fill: #ababab;
      }
    </style>
  </defs>
  <g id="Layer_3" data-name="Layer 3">
    <g id="Layer_2" data-name="Layer 2">
      <path id="Layer_3-2" data-name="Layer 3-2" class="cls-3" d="M0,0H150V150H0V0Z"/>
    </g>
  </g>
  <path class="cls-1" d="M139.29,75.19c0-.9-.02-1.8-.06-2.69V21.66l-14.06,14.06C100.31,4.39,50.29,5.32,26.59,37.45l23.04,23.28c2.26-4.18,5.47-7.76,9.33-10.47,4-3.24,12.21-6.76,19.83-5.38,9.77,.77,18.23,6.16,23.22,13.99l-16.31,16.31c20.66-.08,43.99-.13,53.58,.01"/>
  <path class="cls-2" d="M76.2,12.64c-.9,0-1.8,.02-2.69,.06H22.67l14.06,14.06c-31.32,24.87-30.39,74.88,1.74,98.58l23.28-23.04c-4.18-2.26-7.76-5.47-10.47-9.33-3.24-4-6.76-12.21-5.38-19.83,.77-9.77,6.16-18.23,13.99-23.22l16.31,16.31c-.08-20.66-.13-43.99,.01-53.58"/>
  <path class="cls-4" d="M13.66,75.36c0,.9,.02,1.8,.06,2.69v50.84l14.06-14.06c24.87,31.32,74.88,30.39,98.58-1.74l-23.04-23.28c-2.26,4.18-5.47,7.76-9.33,10.47-4,3.24-12.21,6.76-19.83,5.38-9.77-.77-18.23-6.16-23.22-13.99l16.31-16.31c-20.66,.08-43.99,.13-53.58-.01"/>
</svg>