<?xml version="1.0" encoding="UTF-8" standalone="no"?>
<svg
   width="256"
   height="256"
   preserveAspectRatio="xMidYMid"
   viewBox="0 0 256 256"
   version="1.1"
   id="svg1"
   sodipodi:docname="linkedin.svg"
   inkscape:version="1.4.4 (dcaf3e7d9e, 2026-05-05)"
   xmlns:inkscape="http://www.inkscape.org/namespaces/inkscape"
   xmlns:sodipodi="http://sodipodi.sourceforge.net/DTD/sodipodi-0.dtd"
   xmlns="http://www.w3.org/2000/svg"
   xmlns:svg="http://www.w3.org/2000/svg">
  <defs
     id="defs1" />
  <sodipodi:namedview
     id="namedview1"
     pagecolor="#ffffff"
     bordercolor="#000000"
     borderopacity="0.25"
     inkscape:showpageshadow="2"
     inkscape:pageopacity="0.0"
     inkscape:pagecheckerboard="0"
     inkscape:deskcolor="#d1d1d1"
     inkscape:zoom="3.8959381"
     inkscape:cx="117.81501"
     inkscape:cy="118.97006"
     inkscape:window-width="2560"
     inkscape:window-height="1378"
     inkscape:window-x="0"
     inkscape:window-y="0"
     inkscape:window-maximized="1"
     inkscape:current-layer="svg1" />
  <path
     d="M218.123 218.127h-37.931v-59.403c0-14.165-.253-32.4-19.728-32.4-19.756 0-22.779 15.434-22.779 31.369v60.43h-37.93V95.967h36.413v16.694h.51a39.907 39.907 0 0 1 35.928-19.733c38.445 0 45.533 25.288 45.533 58.186l-.016 67.013ZM56.955 79.27c-12.157.002-22.014-9.852-22.016-22.009-.002-12.157 9.851-22.014 22.008-22.016 12.157-.003 22.014 9.851 22.016 22.008A22.013 22.013 0 0 1 56.955 79.27m18.966 138.858H37.95V95.967h37.97v122.16ZM237.033.018H18.89C8.58-.098.125 8.161-.001 18.471v219.053c.122 10.315 8.576 18.582 18.89 18.474h218.144c10.336.128 18.823-8.139 18.966-18.474V18.454c-.147-10.33-8.635-18.588-18.966-18.453"
     fill="#0A66C2"
     id="path1"
     style="fill:#ffffff;fill-opacity:1" />
  <path
     style="fill:#000000;fill-opacity:1;stroke-width:0.256678"
     d="M 99.847583,156.95835 V 95.997419 h 18.095767 18.09577 v 8.342021 c 0,7.10307 0.0551,8.34202 0.37092,8.34202 0.204,0 1.09917,-1.06533 1.98925,-2.36739 3.1135,-4.55462 8.25874,-9.28386 13.16883,-12.104126 3.78411,-2.173525 8.72252,-3.895139 13.47252,-4.696754 2.85391,-0.481631 11.09912,-0.524026 15.24493,-0.07839 16.7536,1.80087 27.20798,9.26091 32.88158,23.46365 1.25513,3.14194 2.72591,8.6631 3.34576,12.55959 1.26079,7.92554 1.22996,6.79408 1.3318,48.86872 l 0.0958,39.59251 h -18.72204 -18.72204 l -0.12409,-34.07395 c -0.12835,-35.24572 -0.17008,-36.65241 -1.23915,-41.77091 -1.94828,-9.328 -6.43065,-14.15041 -14.45079,-15.54706 -2.67145,-0.46521 -8.98693,-0.17963 -11.57224,0.52329 -9.36218,2.54546 -14.10215,9.79642 -15.27206,23.36243 -0.15114,1.75251 -0.25545,16.06568 -0.25676,35.229 l -0.002,32.2772 h -18.8658 -18.865807 z"
     id="path2" />
  <path
     style="fill:#000000;fill-opacity:1;stroke-width:0.256678"
     d="M 37.988283,156.95835 V 95.997419 h 18.865803 18.865803 v 60.960931 60.96092 H 56.854086 37.988283 Z"
     id="path3" />
  <path
     style="fill:#000000;fill-opacity:1;stroke-width:0.256678"
     d="M 52.483451,78.680894 C 43.80366,76.685449 37.016781,69.729725 35.443033,61.216538 c -0.386747,-2.09211 -0.339822,-6.339775 0.09258,-8.379847 1.688313,-7.965546 7.738009,-14.392537 15.726639,-16.707447 2.618653,-0.758822 8.489802,-0.813037 11.110407,-0.102597 4.080118,1.106112 8.863223,4.152546 11.297294,7.195419 3.598766,4.498882 4.994361,8.417739 4.991791,14.017037 -0.0019,4.112249 -0.402973,5.950084 -2.047699,9.382864 -2.725598,5.688718 -7.714912,9.928685 -13.737954,11.674644 -2.457542,0.712391 -8.063727,0.919689 -10.392636,0.384283 z"
     id="path4" />
</svg>
