<?xml version="1.0" encoding="UTF-8" standalone="no"?>
<svg
   width="256"
   height="256"
   preserveAspectRatio="xMidYMid"
   viewBox="0 0 256 256"
   version="1.1"
   id="svg1"
   sodipodi:docname="linkedin.svg"
   inkscape:version="1.4.4 (dcaf3e7d9e, 2026-05-05)"
   xmlns:inkscape="http://www.inkscape.org/namespaces/inkscape"
   xmlns:sodipodi="http://sodipodi.sourceforge.net/DTD/sodipodi-0.dtd"
   xmlns="http://www.w3.org/2000/svg"
   xmlns:svg="http://www.w3.org/2000/svg">
  <defs
     id="defs1" />
  <sodipodi:namedview
     id="namedview1"
     pagecolor="#ffffff"
     bordercolor="#000000"
     borderopacity="0.25"
     inkscape:showpageshadow="2"
     inkscape:pageopacity="0.0"
     inkscape:pagecheckerboard="0"
     inkscape:deskcolor="#d1d1d1"
     inkscape:zoom="3.8959381"
     inkscape:cx="117.81501"
     inkscape:cy="118.97006"
     inkscape:window-width="2560"
     inkscape:window-height="1378"
     inkscape:window-x="0"
     inkscape:window-y="0"
     inkscape:window-maximized="1"
     inkscape:current-layer="svg1" />
  <path
     d="M218.123 218.127h-37.931v-59.403c0-14.165-.253-32.4-19.728-32.4-19.756 0-22.779 15.434-22.779 31.369v60.43h-37.93V95.967h36.413v16.694h.51a39.907 39.907 0 0 1 35.928-19.733c38.445 0 45.533 25.288 45.533 58.186l-.016 67.013ZM56.955 79.27c-12.157.002-22.014-9.852-22.016-22.009-.002-12.157 9.851-22.014 22.008-22.016 12.157-.003 22.014 9.851 22.016 22.008A22.013 22.013 0 0 1 56.955 79.27m18.966 138.858H37.95V95.967h37.97v122.16ZM237.033.018H18.89C8.58-.098.125 8.161-.001 18.471v219.053c.122 10.315 8.576 18.582 18.89 18.474h218.144c10.336.128 18.823-8.139 18.966-18.474V18.454c-.147-10.33-8.635-18.588-18.966-18.453"
     fill="#0A66C2"
     id="path1"
     style="fill:#000000;fill-opacity:1" />
</svg>
